<svg xmlns="http://www.w3.org/2000/svg" xmlns:xlink="http://www.w3.org/1999/xlink" viewBox="0 0 1080 151.61"><defs><style>.cls-1{fill:url(#linear-gradient);}.cls-2{font-size:46px;}.cls-2,.cls-8{fill:#fff;}.cls-2,.cls-4{font-family:ArialNarrow, Arial Narrow;}.cls-3{letter-spacing:-0.09em;}.cls-4{font-size:29px;fill:#f8ac84;stroke-width:0.5px;}.cls-4,.cls-5,.cls-7{stroke:#f8ac84;stroke-miterlimit:10;}.cls-5,.cls-7{fill:none;}.cls-5{stroke-width:1.53px;}.cls-6{fill:url(#linear-gradient-2);}.cls-7{stroke-width:3.55px;}</style><linearGradient id="linear-gradient" x1="20.22" y1="60.25" x2="1065.54" y2="60.25" gradientUnits="userSpaceOnUse"><stop offset="0" stop-color="#fff"/><stop offset="0.02" stop-color="#f5f7fb"/><stop offset="0.14" stop-color="#afc5e1"/><stop offset="0.26" stop-color="#779dcc"/><stop offset="0.35" stop-color="#4f80bd"/><stop offset="0.43" stop-color="#376fb4"/><stop offset="0.48" stop-color="#2e68b1"/><stop offset="0.6" stop-color="#2c63ae"/><stop offset="0.75" stop-color="#2754a5"/><stop offset="0.87" stop-color="#204199"/></linearGradient><linearGradient id="linear-gradient-2" x1="48.3" y1="49.19" x2="102.46" y2="49.19" gradientUnits="userSpaceOnUse"><stop offset="0.37" stop-color="#204199"/><stop offset="0.48" stop-color="#2754a5"/><stop offset="0.61" stop-color="#2c63ae"/><stop offset="0.72" stop-color="#2e68b1"/><stop offset="0.8" stop-color="#3678a8"/><stop offset="0.91" stop-color="#3d869f"/><stop offset="1" stop-color="#3f8b9c"/></linearGradient></defs><g id="Color_Block" data-name="Color Block"><rect class="cls-1" x="20.22" y="19.27" width="1045.32" height="81.97"/></g><g id="NAme"><text class="cls-2" transform="translate(705.31 62.03)"><tspan class="cls-3">T</tspan><tspan x="18.87" y="0">aylor Drew Pinheiro</tspan></text><text class="cls-4" transform="translate(865.8 89.51)">Graphic Designer</text></g><g id="Logo"><polyline class="cls-5" points="47.81 37.22 75.08 37.22 99.84 37.22"/><path class="cls-6" d="M50.93,40.14c9.4-6.4,20.61-11.17,32.12-11.43,3.85-.08,8.12.37,11.44,2.14a6,6,0,0,1,3,2.86A17.28,17.28,0,0,1,99.23,39c1.43,8-.82,17.56-8.3,21.82-3.57,2-7.78,2.69-11.83,2.9a105.9,105.9,0,0,1-13.33-.4c-5.5-.4-20.85-2.75-18.92,7.21a6.4,6.4,0,0,0,2.57,3.52c.52.39,2.18,1.24,1.91-.16-.77-4,2.73-5.46,6-5.84,4-.47,8,0,11.93.25,8.58.62,18.68,1.73,26.38-3s9.63-14.93,8.06-23.19a23.26,23.26,0,0,0-8.32-14,22.27,22.27,0,0,0-11.81-4.28c-12.94-1.23-26.32,4.38-36.8,11.51-1.18.81,2.73,5.77,4.2,4.77Z"/><polyline class="cls-7" points="68.73 98.4 68.76 67.8 68.78 40.01"/></g><g id="Bubbles"><ellipse class="cls-8" cx="744.31" cy="110.47" rx="57.92" ry="25.34"/><ellipse class="cls-8" cx="335.18" cy="111.18" rx="57.92" ry="25.34"/><ellipse class="cls-8" cx="469.7" cy="111.18" rx="57.92" ry="25.34"/><ellipse class="cls-8" cx="606.92" cy="111.18" rx="57.92" ry="25.34"/><ellipse class="cls-8" cx="744.03" cy="111.18" rx="57.92" ry="25.34"/></g></svg>